<svg width="52" height="51" viewBox="0 0 52 51" fill="none" xmlns="http://www.w3.org/2000/svg">
<path fill-rule="evenodd" clip-rule="evenodd" d="M33.0899 51C43.3071 51 51.5899 39.5833 51.5899 25.5C51.5899 11.4167 43.3071 0 33.0899 0C27.2701 0 22.0781 3.70405 18.6868 9.49511C16.0292 7.90858 12.7543 7 8.08983 7C-1.64099 7 -0.550557 10.9543 1.05285 16.7688C1.77003 19.3695 2.58983 22.3424 2.58983 25.5C2.58983 28.6576 1.77003 31.6305 1.05285 34.2312C-0.550558 40.0457 -1.64099 44 8.08983 44C12.7543 44 16.0292 43.0914 18.6868 41.5049C22.0781 47.296 27.2701 51 33.0899 51ZM18.6868 41.5049C16.1242 37.129 14.5898 31.5615 14.5898 25.5C14.5898 19.4385 16.1242 13.871 18.6868 9.49511C21.9021 11.4146 24.2136 14.3265 26.9886 17.8223C28.1818 19.3253 29.4606 20.9364 30.9339 22.6229C32.3652 24.2614 32.3652 26.7386 30.9339 28.3771C29.4606 30.0636 28.1818 31.6747 26.9886 33.1777C24.2136 36.6735 21.9021 39.5854 18.6868 41.5049Z" fill="#0D76D8"/>
</svg>
