<svg width="50" height="50" viewBox="0 0 50 50" fill="none" xmlns="http://www.w3.org/2000/svg">
<path d="M24.2349 0.998535H25.7359C31.8692 0.998535 37.6796 3.54153 43.1673 8.62753C47.0248 13.1939 49.1472 17.3273 49.5346 21.0276C49.8251 22.7754 49.9704 23.8855 49.9704 24.3579V26.3655C49.9704 29.6092 48.8406 33.3647 46.5809 37.6319C43.2883 42.8911 38.5996 46.5442 32.5148 48.5912C29.432 49.3628 27.0191 49.7485 25.2759 49.7485H24.6949C18.3195 49.7485 12.4042 47.2449 6.94882 42.2376C2.3166 37.2304 0.000488281 31.4122 0.000488281 24.7831V24.4996C0.000488281 24.2792 0.0489087 24.0902 0.14575 23.9328C0.14575 23.8225 0.0973291 23.7674 0.000488281 23.7674C0.629954 19.0751 1.91309 15.2803 3.84991 12.383C6.91654 7.51743 11.6456 4.05328 18.0371 1.99054C20.4258 1.3292 22.4918 0.998535 24.2349 0.998535ZM20.8455 16.5636L20.9907 21.0276C20.9907 21.1693 20.8455 21.3189 20.555 21.4764H18.0371V26.5073H20.555C20.7002 26.5073 20.8455 26.6568 20.9907 26.956V39.3561L21.0634 40.23H26.317V26.8143C26.3493 26.6096 26.4461 26.5073 26.6075 26.5073H30.8927C31.0864 26.5073 31.3366 24.9248 31.6432 21.7598V21.4764H26.6075C26.4138 21.4764 26.317 21.3819 26.317 21.1929V17.7209C26.317 16.2408 27.2047 15.422 28.9801 15.2645H31.9338V10.9422C31.9338 10.6588 30.9008 10.5171 28.8349 10.5171H28.0843C24.6788 10.5171 22.4595 11.761 21.4265 14.2489C21.2328 14.7685 21.0392 15.5401 20.8455 16.5636Z" fill="#0D76D8"/>
</svg>
