<svg width="51" height="51" viewBox="0 0 51 51" fill="none" xmlns="http://www.w3.org/2000/svg">
<path d="M24.0535 0.998535H27.6141C31.4251 0.998535 35.7608 2.57851 40.6213 5.73845C44.2869 8.6067 46.9432 11.9206 48.5903 15.6801C50.076 19.2614 50.8188 22.2836 50.8188 24.7467V26.8128C50.8188 32.3549 48.55 37.8483 44.0124 43.2931C38.7482 48.4301 32.6361 50.9985 25.6764 50.9985C16.9888 50.9985 9.89174 46.9392 4.38528 38.8206C2.02768 34.4453 0.848877 30.1429 0.848877 25.9135C0.848877 18.9454 3.70707 12.666 9.42345 7.07535C14.7523 3.02414 19.629 0.998535 24.0535 0.998535ZM12.5239 22.6563V30.386C12.5239 34.5993 13.8561 37.4108 16.5205 38.8206C17.7154 39.5012 21.5586 39.7524 28.0501 39.5741C33.0237 39.5741 35.8819 39.0313 36.6247 37.9455C38.3041 36.6005 39.1438 34.3724 39.1438 31.2611V21.3194C39.1438 17.3978 37.7631 14.8294 35.0018 13.614L33.161 13.0063L31.2959 12.8605H20.5171C16.6739 12.8605 14.1064 14.7402 12.8145 18.4998C12.6207 19.6503 12.5239 21.0358 12.5239 22.6563ZM20.9531 15.2426H31.2959C35.0422 15.2426 36.9154 17.2196 36.9154 21.1735V31.6986C36.4148 35.3609 34.8888 37.192 32.3374 37.192H28.0501C26.0478 37.192 23.9324 37.2406 21.704 37.3379C17.9899 37.3379 15.818 36.1549 15.1883 33.789C14.9945 32.4764 14.8976 30.4994 14.8976 27.858V24.5766C14.8976 19.6341 15.2932 17.1629 16.0845 17.1629C16.8757 15.8827 18.4986 15.2426 20.9531 15.2426ZM31.4412 19.2533C31.8772 20.2418 32.4262 20.736 33.0883 20.736C33.7504 20.736 34.2913 20.2418 34.7112 19.2533C34.4851 18.0541 33.8876 17.4545 32.9187 17.4545C31.9337 17.7624 31.4412 18.362 31.4412 19.2533ZM19.0396 26.3753C19.0396 29.5676 20.8643 31.7877 24.5137 33.0355H27.4688C31.0052 31.7553 32.7734 29.4866 32.7734 26.2295V25.9135C32.7734 24.0661 31.8368 22.3403 29.9637 20.736C28.688 19.8448 27.3638 19.3991 25.9913 19.3991H25.8459C22.794 19.3991 20.6705 20.9791 19.4756 24.139C19.3141 24.3497 19.1687 25.0951 19.0396 26.3753ZM25.8459 21.7569H25.9913C28.1228 21.7569 29.5519 22.8994 30.2785 25.1842C30.3754 25.3139 30.4239 25.6623 30.4239 26.2295C29.9556 29.2922 28.478 30.8235 25.9913 30.8235C24.0212 30.8235 22.5921 29.835 21.704 27.858C21.5748 27.696 21.4698 27.2017 21.3891 26.3753C21.7443 23.2964 23.23 21.7569 25.8459 21.7569Z" fill="#0D76D8"/>
</svg>
