<svg width="32" height="31" viewBox="0 0 32 31" fill="none" xmlns="http://www.w3.org/2000/svg">
<path d="M14.7919 1.72057C15.3377 0.408317 17.1967 0.408319 17.7425 1.72058L20.8582 9.21174C21.0883 9.76495 21.6086 10.1429 22.2058 10.1908L30.2932 10.8392C31.7099 10.9528 32.2843 12.7207 31.205 13.6453L25.0433 18.9235C24.5882 19.3133 24.3895 19.9249 24.5285 20.5077L26.411 28.3995C26.7408 29.782 25.2369 30.8747 24.024 30.1338L17.1001 25.9047C16.5888 25.5924 15.9457 25.5924 15.4344 25.9047L8.51047 30.1338C7.29759 30.8747 5.79366 29.782 6.12343 28.3995L8.00593 20.5077C8.14495 19.9249 7.94623 19.3133 7.49119 18.9235L1.32949 13.6453C0.250121 12.7207 0.824573 10.9528 2.24127 10.8392L10.3286 10.1908C10.9258 10.1429 11.4461 9.76495 11.6762 9.21174L14.7919 1.72057Z" fill="#F3AC41"/>
</svg>
