<svg width="49" height="51" viewBox="0 0 49 51" fill="none" xmlns="http://www.w3.org/2000/svg">
<path d="M23.9951 0.998535H24.9899C30.4217 0.998535 35.6641 3.12137 40.717 7.36703C46.0856 12.9577 48.77 18.8238 48.77 24.9655V27.3476C48.77 30.9127 47.4278 35.1016 44.7435 39.9144C41.4275 44.7759 36.9115 48.1303 31.1955 49.9776C28.5427 50.6582 26.3321 50.9985 24.5636 50.9985H24.4215C17.8054 50.9985 11.892 48.3409 6.6812 43.0258C2.25994 37.8402 0.0493164 32.1685 0.0493164 26.0107C0.0493164 19.4315 2.55206 13.4114 7.55755 7.95041C12.7683 3.31583 18.2475 0.998535 23.9951 0.998535ZM25.4399 21.7083V22.8994C25.4399 23.0938 25.3373 23.191 25.132 23.191C22.1161 22.7697 19.5265 21.684 17.3633 19.9339L15.35 18.0136H15.1842C15.1842 18.1757 14.9947 18.5727 14.6158 19.2047V20.9791C14.7421 21.9838 15.4132 23.1181 16.629 24.3821V24.5279C15.9658 24.5279 15.2947 24.3335 14.6158 23.9446V24.0904C14.6158 25.9864 15.8158 27.615 18.2159 28.9762L17.9317 29.122H17.2211L16.4869 28.9762V29.2679C17.5922 31.3421 18.9897 32.3792 20.6792 32.3792V32.8167C18.7844 33.9997 16.9053 34.5911 15.0421 34.5911H14.1894V34.8828C16.9053 36.163 19.2581 36.8031 21.2476 36.8031C25.4163 36.8031 28.9691 35.0773 31.906 31.6257C34.0219 28.6116 35.0799 25.7514 35.0799 23.0452V22.0243C36.6115 20.5173 37.3852 19.6746 37.401 19.4963V19.3505C36.8484 19.6422 36.0746 19.8934 35.0799 20.104L34.9377 19.788C35.8378 19.2533 36.5089 18.516 36.951 17.5761V17.4302H36.8089C35.3878 18.127 34.5272 18.4754 34.2272 18.4754H33.8008C32.7429 17.5842 31.7797 17.0899 30.9112 16.9927H29.7507C28.1401 16.9927 26.8453 17.9245 25.8663 19.788C25.5821 20.2742 25.4399 20.9143 25.4399 21.7083Z" fill="#0D76D8"/>
</svg>
